<svg width="800" height="400" viewBox="0 0 800 400" xmlns="http://www.w3.org/2000/svg">
  <defs>
    <linearGradient id="areaGradient" x1="0%" y1="0%" x2="0%" y2="100%">
      <stop offset="0%" style="stop-color:#ff5500;stop-opacity:0.35"/>
      <stop offset="100%" style="stop-color:#ff5500;stop-opacity:0.03"/>
    </linearGradient>
    <filter id="glow">
      <feGaussianBlur stdDeviation="2.5" result="coloredBlur"/>
      <feMerge>
        <feMergeNode in="coloredBlur"/>
        <feMergeNode in="SourceGraphic"/>
      </feMerge>
    </filter>
    <style>
      @keyframes draw {
        from { stroke-dashoffset: 1800; }
        to { stroke-dashoffset: 0; }
      }
      @keyframes fadeIn {
        from { opacity: 0; }
        to { opacity: 1; }
      }
      .line-path {
        stroke-dasharray: 1800;
        stroke-dashoffset: 1800;
        animation: draw 2s ease-out forwards;
      }
      .area-path {
        opacity: 0;
        animation: fadeIn 1s ease-out 0.35s forwards;
      }
      .data-point, .text-anim {
        opacity: 0;
        animation: fadeIn 0.5s ease-out 0.8s forwards;
      }
    </style>
  </defs>

  <rect width="800" height="400" fill="#0d1117" rx="8"/>

  <text x="400" y="28" text-anchor="middle" fill="#c9d1d9" font-family="system-ui, -apple-system, sans-serif" font-size="16" font-weight="600" class="text-anim">
    Teiwazik/SoundCloud-DesktopFork Downloads
  </text>

  <text x="780" y="28" text-anchor="end" fill="#ff5500" font-family="system-ui, -apple-system, sans-serif" font-size="14" font-weight="600" class="text-anim">
    4483 total
  </text>
  <text x="780" y="46" text-anchor="end" fill="#3fb950" font-family="system-ui, -apple-system, sans-serif" font-size="12" class="text-anim">
    7.0.0 latest
  </text>

  <g opacity="0.1">
    <line x1="60" y1="340.0" x2="760" y2="340.0" stroke="#c9d1d9" stroke-width="1"/>
    <line x1="60" y1="283.0" x2="760" y2="283.0" stroke="#c9d1d9" stroke-width="1"/>
    <line x1="60" y1="226.0" x2="760" y2="226.0" stroke="#c9d1d9" stroke-width="1"/>
    <line x1="60" y1="169.0" x2="760" y2="169.0" stroke="#c9d1d9" stroke-width="1"/>
    <line x1="60" y1="112.0" x2="760" y2="112.0" stroke="#c9d1d9" stroke-width="1"/>
    <line x1="60" y1="55.0" x2="760" y2="55.0" stroke="#c9d1d9" stroke-width="1"/>
  </g>

  <g fill="#8b949e" font-family="system-ui, -apple-system, sans-serif" font-size="11" class="text-anim">
    <text x="50" y="344.0" text-anchor="end">0</text>
    <text x="50" y="287.0" text-anchor="end">1000</text>
    <text x="50" y="230.0" text-anchor="end">2000</text>
    <text x="50" y="173.0" text-anchor="end">3000</text>
    <text x="50" y="116.0" text-anchor="end">4000</text>
    <text x="50" y="59.0" text-anchor="end">5000</text>
  </g>

  <g fill="#8b949e" font-family="system-ui, -apple-system, sans-serif" font-size="11" class="text-anim">
    <text x="60.0" y="360" text-anchor="middle">Mar 21</text>
    <text x="176.7" y="360" text-anchor="middle">Mar 28</text>
    <text x="293.3" y="360" text-anchor="middle">Apr 04</text>
    <text x="410.0" y="360" text-anchor="middle">Apr 11</text>
    <text x="526.7" y="360" text-anchor="middle">Apr 18</text>
    <text x="643.3" y="360" text-anchor="middle">Apr 25</text>
    <text x="760.0" y="360" text-anchor="middle">May 02</text>
  </g>

  <path d="M 60.00 340.00 C 60.00 339.99, 59.53 339.95, 60.00 339.94 C 60.47 339.94, 60.39 339.94, 62.79 339.94 C 65.20 339.74, 72.37 338.96, 74.44 338.75 C 76.50 338.63, 72.25 338.65, 75.18 338.63 C 78.10 338.63, 88.78 338.63, 91.98 338.63 C 95.18 338.63, 93.68 338.63, 94.38 338.63 C 95.08 338.62, 94.40 338.58, 96.20 338.57 C 98.01 338.57, 103.59 338.57, 105.21 338.57 C 106.82 338.57, 102.53 338.55, 105.90 338.52 C 109.26 338.49, 122.16 338.45, 125.42 338.40 C 128.68 338.36, 125.32 338.35, 125.45 338.23 C 125.58 338.12, 126.01 337.81, 126.21 337.72 C 126.41 337.72, 126.56 337.72, 126.67 337.72 C 126.78 337.63, 124.88 337.33, 126.85 337.21 C 128.83 337.08, 136.38 337.09, 138.52 336.98 C 140.66 336.87, 139.44 336.93, 139.68 336.52 C 139.91 336.11, 134.14 336.52, 139.94 334.53 C 145.74 330.48, 168.58 319.71, 174.50 312.24 C 180.42 304.77, 175.21 299.18, 175.45 289.73 C 175.70 280.27, 175.76 267.02, 175.95 255.53 C 176.14 244.03, 176.20 233.93, 176.60 220.76 C 177.00 207.58, 175.07 183.94, 178.34 176.47 C 181.60 175.90, 188.91 176.26, 196.19 175.90 C 203.46 175.54, 212.27 175.32, 221.99 174.30 C 231.71 173.28, 240.06 171.32, 254.50 169.80 C 268.95 168.28, 297.07 165.95, 308.65 165.18 C 320.24 165.18, 321.41 165.18, 324.00 165.18 C 326.58 164.13, 317.53 162.45, 324.14 158.85 C 330.76 155.26, 343.00 147.03, 363.69 143.63 C 384.39 140.24, 433.93 141.41, 448.32 138.50 C 462.71 135.60, 442.41 135.15, 450.03 126.19 C 457.66 117.23, 447.96 91.71, 494.07 84.75 C 540.18 84.47, 682.38 84.52, 726.71 84.47 C 771.03 84.47, 754.45 84.47, 760.00 84.47 L 760 340 L 60 340 Z" fill="url(#areaGradient)" class="area-path"/>

  <path d="M 60.00 340.00 C 60.00 339.99, 59.53 339.95, 60.00 339.94 C 60.47 339.94, 60.39 339.94, 62.79 339.94 C 65.20 339.74, 72.37 338.96, 74.44 338.75 C 76.50 338.63, 72.25 338.65, 75.18 338.63 C 78.10 338.63, 88.78 338.63, 91.98 338.63 C 95.18 338.63, 93.68 338.63, 94.38 338.63 C 95.08 338.62, 94.40 338.58, 96.20 338.57 C 98.01 338.57, 103.59 338.57, 105.21 338.57 C 106.82 338.57, 102.53 338.55, 105.90 338.52 C 109.26 338.49, 122.16 338.45, 125.42 338.40 C 128.68 338.36, 125.32 338.35, 125.45 338.23 C 125.58 338.12, 126.01 337.81, 126.21 337.72 C 126.41 337.72, 126.56 337.72, 126.67 337.72 C 126.78 337.63, 124.88 337.33, 126.85 337.21 C 128.83 337.08, 136.38 337.09, 138.52 336.98 C 140.66 336.87, 139.44 336.93, 139.68 336.52 C 139.91 336.11, 134.14 336.52, 139.94 334.53 C 145.74 330.48, 168.58 319.71, 174.50 312.24 C 180.42 304.77, 175.21 299.18, 175.45 289.73 C 175.70 280.27, 175.76 267.02, 175.95 255.53 C 176.14 244.03, 176.20 233.93, 176.60 220.76 C 177.00 207.58, 175.07 183.94, 178.34 176.47 C 181.60 175.90, 188.91 176.26, 196.19 175.90 C 203.46 175.54, 212.27 175.32, 221.99 174.30 C 231.71 173.28, 240.06 171.32, 254.50 169.80 C 268.95 168.28, 297.07 165.95, 308.65 165.18 C 320.24 165.18, 321.41 165.18, 324.00 165.18 C 326.58 164.13, 317.53 162.45, 324.14 158.85 C 330.76 155.26, 343.00 147.03, 363.69 143.63 C 384.39 140.24, 433.93 141.41, 448.32 138.50 C 462.71 135.60, 442.41 135.15, 450.03 126.19 C 457.66 117.23, 447.96 91.71, 494.07 84.75 C 540.18 84.47, 682.38 84.52, 726.71 84.47 C 771.03 84.47, 754.45 84.47, 760.00 84.47"
    fill="none"
    stroke="#ff5500"
    stroke-width="3"
    stroke-linecap="round"
    stroke-linejoin="round"
    filter="url(#glow)"
    class="line-path"/>

    <circle cx="174.5" cy="312.2" r="4.5" fill="#ff5500" stroke="#0d1117" stroke-width="2" class="data-point"/>
    <circle cx="175.5" cy="289.7" r="4.5" fill="#ff5500" stroke="#0d1117" stroke-width="2" class="data-point"/>
    <circle cx="176.0" cy="255.5" r="4.5" fill="#ff5500" stroke="#0d1117" stroke-width="2" class="data-point"/>
    <circle cx="176.6" cy="220.8" r="4.5" fill="#ff5500" stroke="#0d1117" stroke-width="2" class="data-point"/>
    <circle cx="178.3" cy="176.5" r="4.5" fill="#ff5500" stroke="#0d1117" stroke-width="2" class="data-point"/>
    <circle cx="494.1" cy="84.8" r="4.5" fill="#ff5500" stroke="#0d1117" stroke-width="2" class="data-point"/>

  <line x1="60" y1="55" x2="60" y2="340" stroke="#30363d" stroke-width="2"/>
  <line x1="60" y1="340" x2="760" y2="340" stroke="#30363d" stroke-width="2"/>

  <g fill="#c9d1d9" font-family="system-ui, -apple-system, sans-serif" font-size="13" font-weight="500" class="text-anim">
    <text x="20" y="370">&#9733; 6 stars</text>
    <text x="20" y="388">&#9741; 0 forks</text>
  </g>

  <g fill="#8b949e" font-family="system-ui, -apple-system, sans-serif" font-size="11" class="text-anim">
    <text x="760" y="388" text-anchor="end">Cumulative release downloads from GitHub Releases</text>
  </g>
</svg>
